<mxfile host="Electron" agent="Mozilla/5.0 (Windows NT 10.0; Win64; x64) AppleWebKit/537.36 (KHTML, like Gecko) draw.io/28.0.6 Chrome/138.0.7204.100 Electron/37.2.3 Safari/537.36" version="28.0.6" pages="2">
  <diagram name="Page-1" id="o5avIhfF16rEuLp52ik7">
    <mxGraphModel dx="1163" dy="2405" grid="1" gridSize="10" guides="1" tooltips="1" connect="1" arrows="1" fold="1" page="1" pageScale="1" pageWidth="1100" pageHeight="850" math="0" shadow="0">
      <root>
        <mxCell id="0" />
        <mxCell id="1" parent="0" />
        <mxCell id="KMlCDgL7FCjGD3PARy7O-1" value="" style="rounded=0;whiteSpace=wrap;html=1;labelBorderColor=default;" parent="1" vertex="1">
          <mxGeometry x="40" y="-1680" width="1005" height="1650" as="geometry" />
        </mxCell>
        <mxCell id="KMlCDgL7FCjGD3PARy7O-4" value="" style="shape=image;imageAspect=0;aspect=fixed;verticalLabelPosition=bottom;verticalAlign=top;image=data:image/png,iVBORw0KGgoAAAANSUhEUgAAAVgAAAByCAYAAAAWLMmkAAAACXBIWXMAAAsTAAALEwEAmpwYAAAKT2lDQ1BQaG90b3Nob3AgSUNDIHByb2ZpbGUAAHjanVNnVFPpFj333vRCS4iAlEtvUhUIIFJCi4AUkSYqIQkQSoghodkVUcERRUUEG8igiAOOjoCMFVEsDIoK2AfkIaKOg6OIisr74Xuja9a89+bN/rXXPues852zzwfACAyWSDNRNYAMqUIeEeCDx8TG4eQuQIEKJHAAEAizZCFz/SMBAPh+PDwrIsAHvgABeNMLCADATZvAMByH/w/qQplcAYCEAcB0kThLCIAUAEB6jkKmAEBGAYCdmCZTAKAEAGDLY2LjAFAtAGAnf+bTAICd+Jl7AQBblCEVAaCRACATZYhEAGg7AKzPVopFAFgwABRmS8Q5ANgtADBJV2ZIALC3AMDOEAuyAAgMADBRiIUpAAR7AGDIIyN4AISZABRG8lc88SuuEOcqAAB4mbI8uSQ5RYFbCC1xB1dXLh4ozkkXKxQ2YQJhmkAuwnmZGTKBNA/g88wAAKCRFRHgg/P9eM4Ors7ONo62Dl8t6r8G/yJiYuP+5c+rcEAAAOF0ftH+LC+zGoA7BoBt/qIl7gRoXgugdfeLZrIPQLUAoOnaV/Nw+H48PEWhkLnZ2eXk5NhKxEJbYcpXff5nwl/AV/1s+X48/Pf14L7iJIEyXYFHBPjgwsz0TKUcz5IJhGLc5o9H/LcL//wd0yLESWK5WCoU41EScY5EmozzMqUiiUKSKcUl0v9k4t8s+wM+3zUAsGo+AXuRLahdYwP2SycQWHTA4vcAAPK7b8HUKAgDgGiD4c93/+8//UegJQCAZkmScQAAXkQkLlTKsz/HCAAARKCBKrBBG/TBGCzABhzBBdzBC/xgNoRCJMTCQhBCCmSAHHJgKayCQiiGzbAdKmAv1EAdNMBRaIaTcA4uwlW4Dj1wD/phCJ7BKLyBCQRByAgTYSHaiAFiilgjjggXmYX4IcFIBBKLJCDJiBRRIkuRNUgxUopUIFVIHfI9cgI5h1xGupE7yAAygvyGvEcxlIGyUT3UDLVDuag3GoRGogvQZHQxmo8WoJvQcrQaPYw2oefQq2gP2o8+Q8cwwOgYBzPEbDAuxsNCsTgsCZNjy7EirAyrxhqwVqwDu4n1Y8+xdwQSgUXACTYEd0IgYR5BSFhMWE7YSKggHCQ0EdoJNwkDhFHCJyKTqEu0JroR+cQYYjIxh1hILCPWEo8TLxB7iEPENyQSiUMyJ7mQAkmxpFTSEtJG0m5SI+ksqZs0SBojk8naZGuyBzmULCAryIXkneTD5DPkG+Qh8lsKnWJAcaT4U+IoUspqShnlEOU05QZlmDJBVaOaUt2ooVQRNY9aQq2htlKvUYeoEzR1mjnNgxZJS6WtopXTGmgXaPdpr+h0uhHdlR5Ol9BX0svpR+iX6AP0dwwNhhWDx4hnKBmbGAcYZxl3GK+YTKYZ04sZx1QwNzHrmOeZD5lvVVgqtip8FZHKCpVKlSaVGyovVKmqpqreqgtV81XLVI+pXlN9rkZVM1PjqQnUlqtVqp1Q61MbU2epO6iHqmeob1Q/pH5Z/YkGWcNMw09DpFGgsV/jvMYgC2MZs3gsIWsNq4Z1gTXEJrHN2Xx2KruY/R27iz2qqaE5QzNKM1ezUvOUZj8H45hx+Jx0TgnnKKeX836K3hTvKeIpG6Y0TLkxZVxrqpaXllirSKtRq0frvTau7aedpr1Fu1n7gQ5Bx0onXCdHZ4/OBZ3nU9lT3acKpxZNPTr1ri6qa6UbobtEd79up+6Ynr5egJ5Mb6feeb3n+hx9L/1U/W36p/VHDFgGswwkBtsMzhg8xTVxbzwdL8fb8VFDXcNAQ6VhlWGX4YSRudE8o9VGjUYPjGnGXOMk423GbcajJgYmISZLTepN7ppSTbmmKaY7TDtMx83MzaLN1pk1mz0x1zLnm+eb15vft2BaeFostqi2uGVJsuRaplnutrxuhVo5WaVYVVpds0atna0l1rutu6cRp7lOk06rntZnw7Dxtsm2qbcZsOXYBtuutm22fWFnYhdnt8Wuw+6TvZN9un2N/T0HDYfZDqsdWh1+c7RyFDpWOt6azpzuP33F9JbpL2dYzxDP2DPjthPLKcRpnVOb00dnF2e5c4PziIuJS4LLLpc+Lpsbxt3IveRKdPVxXeF60vWdm7Obwu2o26/uNu5p7ofcn8w0nymeWTNz0MPIQ+BR5dE/C5+VMGvfrH5PQ0+BZ7XnIy9jL5FXrdewt6V3qvdh7xc+9j5yn+M+4zw33jLeWV/MN8C3yLfLT8Nvnl+F30N/I/9k/3r/0QCngCUBZwOJgUGBWwL7+Hp8Ib+OPzrbZfay2e1BjKC5QRVBj4KtguXBrSFoyOyQrSH355jOkc5pDoVQfujW0Adh5mGLw34MJ4WHhVeGP45wiFga0TGXNXfR3ENz30T6RJZE3ptnMU85ry1KNSo+qi5qPNo3ujS6P8YuZlnM1VidWElsSxw5LiquNm5svt/87fOH4p3iC+N7F5gvyF1weaHOwvSFpxapLhIsOpZATIhOOJTwQRAqqBaMJfITdyWOCnnCHcJnIi/RNtGI2ENcKh5O8kgqTXqS7JG8NXkkxTOlLOW5hCepkLxMDUzdmzqeFpp2IG0yPTq9MYOSkZBxQqohTZO2Z+pn5mZ2y6xlhbL+xW6Lty8elQfJa7OQrAVZLQq2QqboVFoo1yoHsmdlV2a/zYnKOZarnivN7cyzytuQN5zvn//tEsIS4ZK2pYZLVy0dWOa9rGo5sjxxedsK4xUFK4ZWBqw8uIq2Km3VT6vtV5eufr0mek1rgV7ByoLBtQFr6wtVCuWFfevc1+1dT1gvWd+1YfqGnRs+FYmKrhTbF5cVf9go3HjlG4dvyr+Z3JS0qavEuWTPZtJm6ebeLZ5bDpaql+aXDm4N2dq0Dd9WtO319kXbL5fNKNu7g7ZDuaO/PLi8ZafJzs07P1SkVPRU+lQ27tLdtWHX+G7R7ht7vPY07NXbW7z3/T7JvttVAVVN1WbVZftJ+7P3P66Jqun4lvttXa1ObXHtxwPSA/0HIw6217nU1R3SPVRSj9Yr60cOxx++/p3vdy0NNg1VjZzG4iNwRHnk6fcJ3/ceDTradox7rOEH0x92HWcdL2pCmvKaRptTmvtbYlu6T8w+0dbq3nr8R9sfD5w0PFl5SvNUyWna6YLTk2fyz4ydlZ19fi753GDborZ752PO32oPb++6EHTh0kX/i+c7vDvOXPK4dPKy2+UTV7hXmq86X23qdOo8/pPTT8e7nLuarrlca7nuer21e2b36RueN87d9L158Rb/1tWeOT3dvfN6b/fF9/XfFt1+cif9zsu72Xcn7q28T7xf9EDtQdlD3YfVP1v+3Njv3H9qwHeg89HcR/cGhYPP/pH1jw9DBY+Zj8uGDYbrnjg+OTniP3L96fynQ89kzyaeF/6i/suuFxYvfvjV69fO0ZjRoZfyl5O/bXyl/erA6xmv28bCxh6+yXgzMV70VvvtwXfcdx3vo98PT+R8IH8o/2j5sfVT0Kf7kxmTk/8EA5jz/GMzLdsAAAAgY0hSTQAAeiUAAICDAAD5/wAAgOkAAHUwAADqYAAAOpgAABdvkl/FRgAAP+1JREFUeNrsnXecVNXZx7/33pndnZ1ts42tsCtdRaqCqFFRY+89aqKxxG40GjWoWGINvjGxxSRWRE3s2AMqIipSpHdYkM6yLNtny8w97x/3uezdYbYvC+j98TkfZmduOeU5v/Oc5zznOZpSChcuXLjoDnz9zMjO3N5Lh9GgXu/4IzQS4sIsWufhur8uoryiBl3XOvAchabprV6lu03uwoWL7oLWudQDOLRzOVCgKeYWhaiorLH+3o3wuE3uwoWL7iTYTmAAqF8otA4So0aiL8SHswwenzAL0ND13atjugTrwoWLfQXZoPXVIAm0ivbcaAJJvjBfL/bwyCsLhFy13Z5h10TgwoWLboNC61AylYnXF8hNyhoSb5oNeUp02LYkE0iIM1mx0cODE1ZRVV2PYXQP9bkE68KFi32AmU08cWkDknKGo5SZ355bfTGKrWU697y8kS3FZRiGRnct7rsmAhcuXHQbtA4uKpnKjPPGJveLT90PDW2/tjxHoeE1FPUNMO6VEpat2oSuQ3d6TrkE68KFi31Bg02KTcpKjkvJQzc8/W26bnF6rkGsVzH2lRpmzl+Lvgfm6y7BunDhovt4soOr/0BeXFJuUnxKT4yYxLyGugo0zWjxLn+syROTQnz81TLQFJ32YegAXBusCxcuupFwtA4kQNOP9iXn60ZMPLH+rBHKDKcrmv8XH2sya5XOy+/PBxS6pu2h8rpw4cJFt2mw7U/hcH1MSs6Ia9J6/wKAvBFX9NI0/dfW5oNd/3kNi0zfmFpOd7ljuSYCFy5c7KtmBUPTPX7dE2ORljcOICYabcZ6FV6PyX2v1fHFdyv3iN3V1WBduHCx75gVDG9tZfGCjyu3LgegeMVnQWWGP0fTQdNAs3xlY2OgrFrjpucqeXfKErG7ugTrwoULFy0rsWb4B6XCAJih+npQRSiFnTy6SThscu/EUr76fhWatufsri7BunDhYh+DlrHTC0DTfEDqzl808MWaPPF+Hd/MLkLXQdsLyNUlWBcuXOwr8Db3gz8uzJvfaLzxySKsjbF7D1yCdeHCxb5hJohKriazVxk88foii9D0vYvSXIJ14cLFPkmwMV5FSaXOI6+vp7qmbo+6Y7kE68KFi30ZyU2ISwOPoXjoP+WsWrO1RXI1lcI094zpwPWDdeHCxb4AX1PTgOJfn4X58ruVaJp1fEs4HM4DCnVd7wMUAplAgq5pKiY2ltq6OtuzYAew0TTN1cBqXdd/BEpdgnXhwsXPFdX2hwSfYupyver59xb5wTxU0/QzwuHw4Tk5Ob179cxP+O77mTtdtEzT5KTjj+ePf/wjp511FhXl5ei6jmma9MjMJC8vl3nzF2wLm+ZSXdOmAO8DC+mis2RcE4ELFy66DfFxZptSgi9Mgi9MfJyJRwc0VWnIAtbidXrt3c8vfqS+PrTYMIzJwHXA4GOOPirh2+9msF9BQROTQHpGOkeOGUNqSkqTvJx3ztl8N2MmgUBKBkr9Arhf07S5pmnOMk3zehyuYK4G68KFi70e1z+zo+ULlBVxKz7OS36mj8GFMQzIUWSlGcGQqXjmqad54u9vJZ19zmW/njHjOxYsWrTTc2DduvUADOzfj6I1a3Y+MhSyNihga7USD3bMmDEsWbSQ8orG02fC4bB+xGGHDY+J8Q7//Mupf9J0/RkNngTKO1RgpZSb3OQmN3VLavsZsvrOCXZOdlrywYP7vDKgfz8FqJSUZKWUUuMfe1QBStd1Bai8vDxVGwyqm2+8ocn3v7rgAqWUUoWFBTtjyCQkJKi1RWvUv/7xjybXxsbGqpXLlqkPJ71vXatpStf11bquX6jrOo1JwzCMVpNrInDhwkW3wWNoLSbD0NB10HUwrKhYR23avP37WfNXX7Js+QrQNMrKyvnrX/7CVb/7HdlZWTvNARs2bGDO7FkcdfSYJpqq12NN1MO2Jgvk5+XSq7CAr6Z91SR/xx97LH369+dvT/zNsqFqGpqm7Wea5mumab5hKtXDtcG6cOFin0c4HP5Dbm7ulNNPObm/fUihvXj1/gcfkJiUzPBhQ63vxUzw6SefUlBQYE/PAViybCmPPvQQ6zdssCwFQHpaOrXBIPPmz29CxtffcD2LFy7k62+/deaDgQMGcN45Z58fGxPznanMQ9taBq07z6dx4cLFzxtej9GaCRallAHaU6ZpXn38ccfy6f8mc81VV/KPf/17pweAN8bLwnnzWLliJaeeccbO+wt69eLA/Qei0OizXyG9exeSnBwgFA7j1cNs3bqVVUVr2bxlGx6vl08++x/BYBAN+MURRzB12jQuvvACJr7xHwzDIBwOExcXx6cffcSA/QcycP8D2LFjR1DXtUs1Tf9vqxq72+QuXLjYm6wIoL0IXIym8dnkKTzz5JM8+89/MX/hQr6b8T2GYdBQ38DDDz/M/gP3xzAMhg4ezKmnnMIJJ55A//4DSA4EWn3R5k0bWb1qNe+/9x7vTZqErmu8+PzzfDp5sqW5iunhjttu48gxYzjm6KPYsWMHuq77gNewfHNfblFFdQ3vbnKTm7orGYbeYgJeRBad7IWn5JQUNXfOHLVk0SKVnp7e5MCDMUceqSa9957qCrz0/L/VwcOHN3n+Cb88Timl1LixYxWgNGvRS6FpCggD5+uGjqZrUZPb6G5yk5u6Lem61mwC/jzy4IPVwAEDdq7sG4ahADXy4BFKKaXG3n670kCNPORg9UEXEWsknnziCZWdna0AVbJtm/rs44+Vx+NRwM782ORbUFAQBA43dI1oyW10N7nJTXucYIGzAfXlF1+o0u3b1RGHjXa6SVna6lFHqdGjRqlLzz9JqXBQ7U4UrVqpTjnpRHXoqJGqV8+eu5DrPWPHKqWUuuj88xWwVtf1TJdg3eQmN+2NBNtT1/ViQPXt00dNmzpVKaXUuWeftZNkAZWVlaXef/ddVTLvWVVfXaK6A7+/4YYmJgO/36+ef+45pZRSt91y887vdV1/V9c1bZeBw210N7nJTd1HsHq09IHTHJCSkqwmvvKKUkqpa666UgEqkJKkvvr8E6WUUmu+eUrVlG1S3YXnnn5aGYahAoGA+vLzz5VSSl38qwud5CpJ+00kwbpeBC5cuOg2KNUYI0DTNExTnQ6cYvuyGoZBWVk5l1x6KZu3bKZv33706dOPp++/hCF9/JbPaqgOFa7vtjxfde21mErxl8cfJxgM8stjjmHyF1+ApjUJKgM8pOvaJKxoXa6blgsXLroXzrOyTFPFpKYG7ht0wIHMX7iAsjJru7/tf3rrH28nMTGRSZM+ZkRhkGBd/S4k3V24+rrr2Lp1Kyedcgr2YOAgVgYPGoTf78/5dsaM32sa4+xyuju5XLhw0Y0arDMuAef179t38NRp05g5YwYXXXgBfr+fcDi8MzDL/ePGcdRRh1MTDKMZMZZ/akPtzs/diXH33885Z56xk1hN06R/v348/thjzFuwgPHjx+PxeG5QikzXD9ZNbnLTnlzk0tG0b9E0NXrUKPX+u+8opZRavHChOvO0UxWgTj7hBMsIGm5Qyyf/WS18/ya16otH1Nz/XKpKir5RewIbN2xQubm5KjU1VT360MM7v//T7berHHHt0nX9dneRy01uctOeXOQ6xOGwrwD1i8MPU19MmaKmfTlV9cjMVLNmzlRKKVW2cb5a8vEdqqqkSFVuW6V2rJ+tVnz+UIcIsnzTArV58QedItkHxo1Tow45RG3dskWNGztWFfTqFbngtUjXNUPXddcG68KFi260wcpBAQrOAlkk0jRMpZg2/RtOPPlkQqEQl196KSMOPtiajofr0XQP/rRCAGortqLrRofeX7V1EeVbFpG1/ykdLsPtY//Em2+/TUFhIcFgsIlNVnAAMBrU164N1oULF91ng0UDTYs1TXW6bcc0TRNEu62rqyM+Pp4bbrxx5z0JGf1R4TBLPryNZf8bx/LJdxOf1qdD7w/VVYNpYoYbOlwGrzeGc846i9pgsDGIt6Mspmmi0M4B103LhQsX3Uyx4bDaf9CBBwz49UUXM2/BfBYtWszGzZsoKdkOwKEjD+HAgw5qJLS4RFJ7HYpCkdprNGtnPEta76M79HbDG4cvJY/a8s3Ep/bscCnOOe88/vrkk+zYsQPDMMjJyaawVwGjDz0UTdN47PHHDzPNsOYSrAsXLrrVSABqkD/ez1nnnsOtd9wBwI7SUj6cNIkbb/49o0dFD7dqxCYSk5AOQLghCATa9eZwfTWmGSYuuScNtTuAjhPswAMOoM9++xFISeHhRx5h2IgRloYcCvHqSy+hG3q/cDic7QH44R+a2+4u2oMbgD8ARcBZQJlbJT8PDLu68/GjdV0/eMbMmRw46CDy8/MY0LcfRx55JP379ycjPYOjjxkThRwr0b3Wyd2GJxbVgSl+fW0lsQk9iE3Kxgx1fqPCwSNGsH79etYUFTHh5ZeZ/cMcVq4uYuvWraBpibquH+hqsC7ai18DfwfeAKro6GFwLn7O6K/rOsFgkBUrVrJixUomffQRAH379OGQkaOa0Xzlk+7t0EsbqrdRs2MNoboKUIpAz4M7VYhDDz2UZ557jg8+/jgiqzt3ePV3F7lctBe/lf/zsDaq3NRE+l24aBkGkCuabJMEkJaaSpzP18ojOqZFl2/8gaTsISRmDaKmtIia0vWdKkiPrKyd+Y4shyDXJVgX7cXDQANwGFAILOqwxLv4OcJnmmZy5Kq7aZpogN8fv9terHt8lG2YReWmuYTDDegxnXtXRnoGPhkMIj0iZAtt6p4yERwCmMDsvaTR+2FZzL+PmJMcD0zGilzeUXTVc/YWxAGPY0WeXwGcJFqJXbZ44ETg7Yj7jsIKgjF/N+cvBzgC+M9uePYAIAZY4PhuDFAKzHO5s3WYphmflpYaN/aOO0lPT0cpRUNDAztKS3nrnXcwOujf2hbEpxaia+DvMQjN6yMuIa1Tz0tLTyMlJYWTTzyBIYOHEAgESEhIoEdWDz7+6GOeePLJuD1BsL2w7Hc37kXtngC8hbVgM8sxD7kcOBW4rhPP7qrn7C2YDLwvn8cBJwBOI1Qt8ADQB3jU8X1v4I/A0cCm3Zi/MPCkfO5Kks0CJgL3RRBsAfAs8EvgR5dCW1c4vB6vNmDgQDLSM/DGeElLS0M3DObOn0dxcXEbzAIdnDCZDXh8AfyBfGpKVnRe0/DF4YuL46wzz+KII48kFGpgW/E2SrZtIxisAVDdSbCaaBYvyNSyei9q9CCWTfFT4FrRvkJYizjXinZ7O9BRo439nCTgTmDDPtxBaqQcf5I6mRYpxmJCeERI6X7RXCtkpvAVcKX8vztMC/VYh9G9IeT3pOS5MxgJPI+1Q6cy4rdKKdd0GUgnuyaTFqbpus4WiUpl2yxjY2MBqK6u5tSTT4p6nxGTCKLd6kYMmtGRhS4lkbhMwnXlXVAWg1A4zAUXXYTf78dUivq6OitYjZRVj5j6RfvcldOrx0STsQm3pWno7sxLNPIPAalCDMdFDJUXAmOB5E5osQAXA3d14jl7Cy7FctNC6i0S9nc3ycDiRB9gPDCohefHdqL9NSFZgDuASzpZ1v2Avwi5RpNb++88ke+hLo22TrJoGqZpEgqFqK6uprq6utUOFK4rpyFYjhluwOPtrK22a8ZAOyxhdXU1wZqanZHAdi5+yXUvAwuBa0S7WAi8C/i7sF6XScdqCTHAq/L+K7H8LRcBrwPebmr/F0STdaJUNM+KTj67q56zp/F32mZLXSKkE0lMT0obRyIATJLfzpdBbRHwDzoWu/hT4J+dLOtaKW9b8H+4ttg28lvbCa6htpKyDTPZsfY7fpzxLDU71lKy6vMOv9o0FZrXv1vLZseJtYX2dNGqjpDpXR+sbQ4JXTiVV7QefzYOa4EkVaZlHtF4YyVfcVg2vt0Jo4XhTXVhXezO/HfHYprWxmuilVVv5vtULFu1PS0/UNo/RgbYUHuVpS6oa5O2x0025PquRoxDK9/nYSpFWloq8fHx6Fpj1f64bh3K3LW5qkuWAzDwZMuk31Czg/U/vNw5LdqI7ZqymCaBQIDkpCQ7xi0AVdXVbN++fSfBjsFa5bVzPUfS1m6u+wqZjp8nNq9YIdSZwK3SWR7vJCmo3Ugo3fUcrww4kegHnOHQGvcGtKe8q0UODxRZDADnYNk1gz9TXe8W0egn/yTI1TTJyEjniymfN4k3AHDHbbcx54c5UclQmWHqKjYTDtUTqqvArK/d42UJh8NowEvPP89pZ57Z5Lc3Jk7kwosv3kmwP0hyTgHbAj+QL9P/rsClMi1Mw1owsKfVl2C5/zzYiWdfgrX6vS9PzwfIQPMJTd2gYoAzgSeAKft4H/xKEliLg3/dDe/Qd5Om2ZXIx/K6uB4YvYfz4sOyLZ+OtbDZieFWo6y8nIcfepDU1DTq6uqoqqpC0zRmzp5N3z69d7klqcdAiuNSWDHlAeIDvajctpy8EZd1YOauLNOE1jW6kmFYi24P/PkBJr42kdjYWJKTkqirq2flqpVNTATRtI7eQAbwXQvveBzLrakrCDZNOlOKdCx7lXm0EAhtmCKeL9dHOtMdiLUI8Z/dLIgxwEC6ztezAPgFcLgI+CDR6qc42ulGGYzsRaMDgHs7+d5a4Fvga/aOFfEsLE+ArhochwJnY9lMqx1mm9q9oKz5WItqx4nJBOB3WL7UncFm4H/AmjZefzBwLDAYGCF8UNxZgtU1jVBDiNf+89+opLP/wAFRbvKQ2GN/EnsMpMf+p7Lm6yfwtyFcoRmqI1ixBTNUizJDVG9bjmZ4MRuCaFrX7LHSdJ3ZP8xl9g9zd812RMDtbKwFmJEOzfTZZghWw3K/+R0wNcr09ZfAR+3Mqx/L/QchkLNE01hOo+dBS7avf4sG3NL0c3eThS5k94dmpvBtRSrWws6JWHbwXWQnolz7R5BHV61kTweukDboTgwETpN66AMMF5lyEuxgac8FHTRb3Cllq5Ln2BtfrmH3Bq85AfgSqGvm9yoaPVps/KaL3l0BPIPlYtdcXzgEy5Pm6Gby1nlS0rQmhx86zQeqmcWvcF0lmtdyKDHDDYRDzY+F4fpqKrYspaGmBK8vBW98KrrHR0rBEYTrKyhd+w311SU0BCvw+pK6puPr0Qnb4yDFN0RbUli+fUnNjOjJWPbRs6N0dluLnIDlbH5PO/K4HmsF/wosO+JWeX9WG+49Lgq5ltA0EMkqdv/iVRzQXzTZzhDs/cC58nkulhfFDTLoReb7cyGENEcnKu6o7MusxZa6w2XgGhOlPHrE/11JrtOAdMd3oYjZiy4yWACcTNMdeO1BhiQbfYSwH45SL12BQ8W88yaWy160hasdQsAXOb7bSMdt0DE0xo1IwnJdW4zlrROJ4Vi2Xrv9J2Ht1vtDF9aB89DDXSpZa2b6bobrMTyxopnWNntsd82ODVRs+gF/Rn8CPUdEvSYlbwTV29dSunY6iVmDiA/kd7pMttdApAnBJtjDhFznY63iHikkGY0kykU7PTvKb5ky+gHcLdOSZ5vJU10UsrhShG+YCEYBTf0YmyOtYyL+fhjLXttWD4i6LpKde7BsxZ3xvEjGWtgBy/58ErAFK4qVLQn1LXT+94CrO0Gw6Vg7tH7rINmDsBY9nSh1pJY07PbiRsnDv4G/Ae9EmcFcIWSADD6H0r4F2SVYi2k29hPzVLIQfCQqHeWMbNu2ru57aVygPVdI8+YWZmROXBllpthmU6H0p4lCtIgyEo1g74wg19Ol7m/tKnI1lSLG6+H0U04lNTWVQCCFhoYQlZWVzJw9i/r6+jaK6a4IVmyh7MdvyOh/Al5fspP9KF03k9jELPxpBdZ0Oa2AuIR0ilf8D9CID+S1f6Aww5jhMGecegoDB+7f5Ld58+bxyf/+t5NgBzim6c/RGIn2ctFeIokwsZl33oxEyhGME814R5Rrn4zyvSm2tpBDIww7NO1o+XHm38YRWItAeiuC6zRPdHYT9OFS/ss6+Zwch/bmE0E3RLuy8YBotHbHdc5zTqJxkagjCEUxS9iRjRNl4E2Udq4QQop0SuzfwXd7pO1sTfxEebfT7SxNbJQ2CrEWRm9sQ6+05ag2oo6+Ei0tOUJTPgG4TeTDNk/8NUKbzGxj2X4jA4GN34spJ5pLXWRv/z923UHWZh6QQcDp+DkqSptp8r2NIWIy6VqHUaVITEzk/vvvZ8ABBzT56Y5bb2XO3B86St3sWDONlF6HNSVXoLJkFQoIlq0jLjEDI8YqkhGbQKDgCLYt/5i4IRege9rnumWaJh6Ph8svv5xTTj+jyW//eOqpJgTrcUyR+kQIb2E73jlRhHKI/N0Dy+3qmSjXdsRO2Nb8HN7NNsM4MW8slzrolInKYbLwYS02ROLAFu5Pj5hed4ni4ZhunkDTnVY0o/V1tOz2oHiLc+YXoU3eLURnX3u2fNfS/sdDpI2ae+9+Ub7vGWVAL+hg2SZjxWxw7gU9so33Duji9vQ3o6hElr1nV3cUXdfZvr2UI8eMITYmpqmNcMMGTjnpxA49t7J4BYY3PqomWl9TSiBvKBVbFlEfLMcX0zhmxCVm4AsUUrZhLqkFo9o3NfB4CZsm515wIRnp6U1GtLKyMtC0XQi2I3DusFoE/ArLs8AuxUgHwe4LAb6d5OFzaG4t2aAuAPrK1LyhGS2izTK4F9bTjoj8tRUJzciJt5XOH4l4x3vrsdwI98Paimtr/X1F49IcMyxfhBa+fxvy7OuivhCJH7HsrjMjlJh9CQldRbLNBXXROuhCVVu2noQeTTXicH01tZXFBEtWEOg5At0TR03pWmL9qeiexh3YSVkHULr2245pBJpGbW0t6zdsiFpOuyOvAb6Icn85VmASjwh4nQiws6Ijw9IsFUE/MkqjbGrmPbsT9Vi24LZiRoTWERS7W20L2s/F8vnrNpB2ayjFWsDRI0jtNMdU/Sus41q6AyaWDdieWj/XjmnjJof2uwIrxCFYNtDm3jVBCNOJhija6dsOgsVBqs48zooguBfbkOfpjs9L5B4lWnSDtGVzJLykDQPVZAfBzqep//nejm17a8bC9dV44yxLWUOwjNqKzSil8CXnEONPp75qG+HacjyxfqpL16HpHuJTctE9scT40zBDQcL11TvNB10Fm2DfpzEEnROnyFTiRSGpW7B8Xl9ohxbgHKqm0nFj/Z7AC20oayLWIhA0fwrbAAcZt4WUrmim89rPfxRrNbq7UU2j7be9mBVBeFH7CVYwnLbAF0HMW1vJ41IaF+7aiukOwj1azAxfY/kIdxTO9YsJdG5n4j4J0zTRdR2/349hWHpEXX0DwZqaZud6mma02H3CdZVsX/0Fnthk4gI9ifVnEJOQTvX2NTTUVVGzvYi66mIMr59Ar1GE6qqpLF6G15dK7Y41+AKFlP74Pam9RmG0IxC3Eu+BlJSmdt+q6hpCoVCLU9EYIdZ0sfmtxVrNtImyOQ1qFE3tq5N/BjJji8U4LP9dp7/gGTTapLfQscUK29HbJpO1uLjY8XkZlj/w7sJNWAuLtWKa6CjB5tDU42Xdz5Fc09JSee3ViQwYOACPx7KqBINBxj/2KKuLotOKEZvQ4g6scLiB5F6jKVs3g8ScocQkpFNZvIxQTRm5Q85rnM5Wb2fH+tmkFx6GLzmbmh3rKds0l6wDzqa+aiuGJ6btWnM4jK7rvPLiixxz3HGOwQAmTniV2+64o0WCrcfaqncGlg11g2hQs1og10OwvAa8Dq3h45+4zFRguQrdhOWP+x3WRolymQqeSaOHwru03z+2EMvVzW75KXTd1uR9ETrWir+TYF+i61ztIpGC5fZXirX5YymWB8XGdj6nF9YCaLb8XbIHzGV7BWpqgnzx+ecsW7q0sVF1jeUrVhDjjWn38yqLlxETn0p9xSZifAEqNs4hnDGAuspi0nv/gm0rplC69mtS9zuatIJD8acWUrFlCYmZ/ajevpqE9P7UVW4ENMo2LSAlbwhtWWrQNMvt7JNPPmHr1i3ExFiWwGBNDd/P/L6JiaA5vIzlh2hIukrIcxiNu18SROCOwXKjMhza2rXsHdsPdzfGYe0sOkq0/Wir/HOx3G2SaVy0sYfkeJk6mpJiRNsZKXWY7DAf3MhPK6Cz7XvrjZDqgHxny1kmlrfCBTR1d3oLy192d+IrLO+JB6QNThXCTRZ51xyzvoDkV0n+c6UdrxayBsueex2w/Wc3Ouo6wdpaHh0/PqogNBdwu1mbVemPhGoryTrwjCYWo20rv6RmexHFyz5k64rP6DnkQrxxSWxe+DaxSbmY9TWUmyESexxAXGLjXpPyTQsp3zif5FxrEm6GaqnYsgh/am+88YGIshhomsbr//0vr//3v1HL2hLBjhVB0sWuZfsHGiJYCVgLCX4aV9krhFg/E9vS+p+J3JRjud/8CWsnW74MXko0lfdlNnAPlp+nIaaCsKNjJgnR+rHcvlKkTqulHqeJffKnZB7oLVphkpCS07RiDzo++d+Wt1qRsZVYsV4n7uYBpxxrp5iJ5b3wPdaC49PSN2pp3GzgkXwmShsmOEi4SswY30jfWMDPFLqmRZ3um6bZ5obUdIu66quKScpq6hxSU7qekpVT2LbaWqYwdNBj/KTkDSMpa392rJ9DxeZ5JGYNIi7i6O7knEEUL2sMB129fS31VSXUVW6jx8ATWxw4oqElgn1dNNgKmX6ZDnujhrWaGiNCFiNkUS+C1PAzlJsgli/mn4VgY6TONtO4Av5vGgOM1DqIQTnq0a7TWKlPZ73+1LBFNPItIjN1TdQQSwP00uiFESv1HKL7oqLFyCzuXsd3X2Itdm13tBGO9oyVfHscWni9aK61uIi6tRTauh/XJFi+AQ0Ns74SI8Za7wyWb2LT3IlsXfEBoboKDCMG0AibjV1N98SRVngYgfwRbF/zDZvmvkZC9pAmJK3pHiqLl1sxYzUNX2oh1duWtbs8zq2y0dCaG1CDKyZRUYcV9yAaWguaUv8zq6tqLJtmcwgLIVXu4faM1DZbm5mF3G7QDBEphcdjMHTIYAIpKXjtRa7aIMuWryAcbm6XtdpJv0opVKgW0wwRrNhMuK6GzQvfYeP8V6ir2obu8WK0ElBb98SS0XcMDTWl7Fg/i6riJSRlDyYhoy/hhhpqKzYTn9KTsnUzSOk5CiMmuguwMk2GDh5MdlbWzvgKmqaxcdMm5i9cuE84/rtw4eKnAqUIpKTw9tvv0KugoMlPd//pT3z/ffS4Pbo3ARW2lH9vfIDErIPwJWdTvHQSc9+4kJqK9eiageFt3xFu3vhUMvsfT7B8M2XrZlC+cS4NNSX0HHkluuGlfMNMwvXVaPque0jCoQa8Xi/jx49nzLHHNvnt5Rde4NLLL3cJ1oULF90HXdfZtq2E448/nsSEhCa2gcVLlzLmF9F3D+tGDOFwnXyOpbToS0qKplK+aSaapreqsbYGX3I2vkFnUl1SxLYVn7Bl0XsECo9AmWFUKLqDiuHx0hAKcfEll5CSkoI/Ph7TNKkJBikvt6yCLsG6cOGi20l2+YoVzRBp9MUiTdPQvPFUbVvB9jVfUbVtMXQBsUbCn74f/vTrqNi8kJLln1C2YTa+lJ40t46qaRqbt2xh85YtUctpE2wSjcZ4sBZUmrMHemiM3qRh2ciqd2N79MVyWTKwXGB0LBeZTVh24ro9KCspND0k0Wmjb0td7s0YIOWbsQ/l2Y/ldWAb8lpaVNJpdJvSsOy9ZS79dR/JRsaEVS2cNBuqLWfj/InUVW8hVFuO4Wnnae6qfY4mSdmDSMoeREJGf7YXfUV8KycoRMZQsP+2h4u7sOIRrJT0VAvPetxx3Road3ftLvwTa+fY51g+j29gOdsvwVp8+O0elJNnsdym7Pr4EWsBZAPWyvgqrOA3+yLuBF6h6wNq705cIe2wSv5v6Yig6yPk+FmX9roHphxrbQfebi4AtxM7NsymcutSwvVV6EY7NyNoEG7oWLzyQMFocoZe3GyMAjvfkWWJPLb7EdEI7QPmzsTy24wc0ROxTny1j7O4js6H52sNF2DtpLkMa3X2aNEIr8MKQv08VhCKD/aArPwBaw/8TQ5SmiuzgUOx/GKT98E+YEj++2KFrFu7j+T7BSzXqQny98lYEbQig7B4sTbF2HJ8P5Y/rovdTa6mSUJCAg8/8AB9+vZt8tvzz/+biopmHEZUGM2wYxK0H0p1PAa8pnuikrpphtE0uPfuuxk5cmST3z755GP+/vQzO7WTUhnt7elUOlY080gcSeMRLjuw/GTLd3ObbI3QRIqxQr79hkb3md/vIXnZJARv4yusTRYfYm3UmEHzwcn3dvNAgXw+Yh/KdyVWpP41joHizCjXHUBjgB5EvjbjolugaRpxvjh0XW9MhoHH42lZDW0PoWKiMHcujBleH2a4o5Y6RTQb7E6lW6mmZdH1XTRYsHbOBOVJPqwYBC9HPPMMIZUcuS6W3Wt/teG0szrzvEQ6SiHWzpk94cTtzE9kGLuJND1tYF/BaBrjSRzj0Aj3BcSKmcaLdTLA6ex63Ps5WDvsUsUEEoeLboGu61RWVnLl1ddE/b29W2V31Sot93zDY0XESu99Ag01O0jsMYhty/9HbFIW8YH9iPGndn6aZxgoBff++c/NltUTQRRbhLTOlql4Fo2xQDOx9tr/16Ex2t6/x9K4sKBjRdDy0miffVm0CT/WMSA2iZtYWw/nttYurfwelmdpNEZq12iMW1oDLHSUBawznWJoPDVXp/GcJvtUgam0fr5UtKH1EHn2MzQ9iuYA6dwfYW06qMfaLtpTiKFK8hEvg8WPNAZ2ORYrwIjtmF8A9JN6rKExLkSDaPk+Go/cSZB8BrHisrY25T9ezDEerLPa4ml6qgAyqF2Mtatpoby3Rsr7O7lmAo1BakbJ++NENkJCcvOwTm1IkbJXyT324L0My6Y9BCt85oeS/xqiLx7qWLu83sQ6wmcwVgyDpQ7zwAmSt5taGWS20Ljhxi91USczkxqHzNg776Y6FI5TZIYVLWLWsVinbkzF2jqbKDPB46RMHmk/JfUxQ8pht++3EWVPEJnziiaeKfLgfE41VqCmgXJ9kUPTH4AVjMYQBSpV8tQgchgv8lOOtWW70yRrRrO5qs7teFYqTEL6/oTqysgZfAkNNdtJ6300RkwC9ZWbWT3tWcKhWnodcg2VWxeRO/wyQOFLyurwO3cubkUscunytycKWbwvBJssHe1lhz1rE1YwbSII9gysoCRg7dGeLNpbvjTkVVihDz+T64YLsW2X61+Sa8JtKJNTsAbJ//Ple10I3D42+1Mp44nS6f/puPdG6TTnOMp+DtaxzQBP0P6zrezO9Rsp23QHQQ8VYp2CtZ02Cevwuweks30vnbIGK8rSEVjn2J8v998p5bSPUrkGK+7pFBlU/Fh26IOEvF7CsqMnSj2EpGP/nZbPts8QMvuntFWhdN6pjmv6yHu/EiLKFrJdJO3eU9r9enn308B90u5LsRahemGF/hsqcrFSzEG/lHuXisxdKyT+ocjVeJHNk2n+9Nw4keMrhUwuwbKHIyTpl7q9uYV6eEja4X7HDO9eqYvnsIK3aJKPGyV/M0UGNKyF4geBf0Vo1y9Lf/kQ67DRBKwoa+OlD5wpA8938tvRIgsjsNYi4rBiITjXHH6LFfCmWMp0jHxnPydevjtCyv8gVlyE4UKa/aW9t4oC9YC0SZ4oBd+KHI+gcyc+dBmZRtFd0TSNPkf/iWDpj8SlFpCQ0RddYhbU7FhLdelKNN1D0fS/oMwwutdHXcVmBp70SJeXx7TNBhGX+aQj2Vs6L4qYVn0cocnoUvHXiRa6TjrVIKy4qGfLM9aItrXMIdR/xwom828RhsPaWJRCaeh/S+NvFcJC8nKr5H+lCOJJWIt42RH5Hk7j6bW2FnytDCJLJZ/hdlbzvcBrWJ4DkZGSxkkd/Vrqa7CQf610qtOk/ubJ58sd2nGy5HVERGe9Ra79QTrXadKRaqROPpWB5kyp6xto/diPkdLp/uowzRwVcc0Vku/fSFlTHW1zrnx3seRrgHTmPzgGrtNEa10k9v4FQlwXOWY8p8i1sTJj+hZrodMmfb0VM8FihzJwisPkcb7IeEvR+dOwFvl+6fhuG40eK7+TOglLuT6WdrWfmS9pdMRzb5f3XyL96QSRAVvjvFSe+YXU0RisQy+zpC7s2da5Ec+1A57+U+TvKqwF6q/kOceKRt9HBo5ZMnO6T+57X/rj/VgxFl6XvNlRyv4g5NwlsZ1N0yQ1NZWCXr3o168vw4YMYdiQIaSnp2OGzU49O9xQQ+bAE0nqMXAnuYJ1AqymGei6l3CoBtOsY8OcFwjVdS6khTJN0tPT6NO7d5OUnZ1tBRaPYk/cKo1qT+uyRKsZiuW205y9yukHkSXTDXuB5G6HsHsi7JW2n2WvNto7PxMBuVxIbIyQUqRVWnd0lgk0PQpkoJBzAdZKufP5dXQ8OtN+MpD4o5gWesr7EoRwxsr304TQNZoe+vc1jfFCR8kUegiNi4yzHFql7iCWIulkmoOgPUKCtibYEk4SM9EqGlffT4wyyAXEFr9DNJ4a0Xh0R7s/7JhS6hHtnyh1UCaEWu+wV9tk+JaYAwZKvSaJieMvrbSRJvmxT+k4kMaTbk8SsmmJoIfKwHuAyL4Ta+Tdj8s1tsx4I+pQl5mJs7w3iznlTcegfr/jHYbIjeGYTTwiAxFS12WiNdun7A1zyETYUf5Kx7szJb8L5e9N8vu1NAbHt4/DqaDxSO9Yh/aOaLedJtfExEQ+/vBD1qxdy/LlK5gzdy5z5s7ltltuoaGh/SFOFCbKNDHDbbtXQ0dDb58DYhQvBNMMEzbD/OPpp1m5alWT9OTfnohqIrC/ewvruOJEGak9QmabHBpfS7bIImnsl2SkfMghJFrEdHqI/L+qLQOUaDFJMqKniBA3dxaSDyt61RM0Pab4CLlnf9H4FjvypnVCfn4rNrVnhNid+E4EeqpoZE/I989FkIpTY/qHQ6tcKYPBCCHJic3YH5V0ykjb9V1C2B+2QkyHiLaNmDSGCtHk0xjkZLZoTVPFjvkvx/0NMrvoLxr94ijy0Ve0eNuW31yoom/k/zGifX8uppFH29AWccB7jmn1OTLw1QnptzRjOly072GiyU5y2DonyWB1ieT/sShyM1QG0f1oPP56sMjr2xHv+sxhH9Yc7eaXcl7tMIuVyvt/LVrpG0LmX0o/0yPk2LbnPydara1hb5d6eUhkbKQQu09mWc2tibzaafVV06iuruYvjz1GQmICFeUVVFZVEgzWsmzFckYdfEhjZ6+vlkhZessLWl4/eqyP5OxhKLM9upFVTeG6SjSvr4nGuwvxRNkua3jiMHSDcffdzwsvvLhzF1o4FGbjpk3NEmycVHCRCMgl8t2bbVxw8ohwPSkC+KAY7y+MWGS6XKZLv5QOPaNNg5XVOX6UKeZvZJrzjtibbNRKB/9WtJe/RDznUJlCvyqmjL93kSHIHvHfdIz6CdKpHxHb23AhurFR8hV1sVKm2X+S557bBi3UOSB5RHsfSOvnePUVMj2dxuDh9gLPCQ4ifVHsm31levygEPhqsT3eLOU7RtrYudBzq0yVv25HvT4hzxkh990qdt3WCHatyMsvZao8RAgtFLH4GCm/+UJAb0oZJjl6pC7Kx6lS5o8iZm8ZYtJ5VKbspwjB9pPff4xo23pRLux+VYPlDjmDprsrbfl6VUwp52C5lw2WwfaKKOsBh8vA3itiRpWA5V44SurlfNFcNXYz7MWft997LzrdaSY1xYupKl1P9fbVVGyeT8Ho69B0A5SlrZrhEJqmkZA2kFBdOXnDfkOwfAMJGQPAbJ8GrBleytbPxpfej4oNs8gceLKVT8PrGBMMais2snXpR1Rsmkc4XE+PPkdRq6WBprF4yRIWL1kSdTFPb0bAGsQOY08PR9H2DQV2I90sJBaWzvqMgyTtKUmcdN4Z7ZiW254Bj8ozsmSUdyIGazX1ErEbObdhpEsZX5eFpRGO6VZX4UvpeIiWsb9ofyeIwHtF8zmmDc/qJzbRt2SAGtPCLCKaRhsWjedtWvfJPVw65lDJW4BG1zdnXktk0PxM/h4rgx1iF75P7hvlWFi02/clsWG2Z4tzEdaC60yRmaei2IWbg70YNFjIpDU57i8y/BaW18ZZEQs7cWJGe0Dq86/SnqbjPcvFLBV01FtlhGkMGTTnSBovdRYnhHyRmENiIt69ULTrY8S2vqmZGZxPrrtYTGhxUeTiFsnj/0mbd5ubo+0vamu1toBoKowZCpKQuT+9Rl5BfdUmFrxzGdvXTMETE4+ue8gddCGpvY4kd9ilFBx2M8n5o9jviJsArdUdYbvmw0ttxQaWTLqejfNepXLLIn6cYU0cq7dbThZxST2IDxQSl5xH5sDTSO05ipjEHKq2LsLrcZRBkrNseoR26Mzde9IImmhAqx0LSdGutxESDfF0sb3+0rEAk0JjHNnnZXTfIdpITItLhE3ziUyr7A5+DY37yu1y1YlZ4ibpoKdLWQbJlOgVmer5hQha0oTOa0WrjpZPxOY6TIjxD9Jhxoh2D9YutdZwFNZK8iuS/zyaOsm3NtgpmYLfKQPZsRF1FblY8jeZHQyTerHDux/mGKhukM54AtYpDUg7Dxct/V4h4B+lvM523yLP/JtowAe3UqdI3pdLXTzlMBs01x5hR1tMEhLRRQ7mNPMOHCarkY71hjzR/iPxlAzQxwk52QPGkTJtf076wnCRs3kOO72NZyUfw2RWYGvIFbLwd7cQ5XGO9qwW5SBFSPlDorsS2s9ZKH2gVrRuu+x+6dN/EVv6Zd1FsKZpWttllSIpMZGkxETy8vLo0SOTjKx8EnJGEJ/ac6eGGevvQVxiHpkDzyZ70EVkDDyVgtE3kpI3jIy+xxAfyHdYxzqG6u1FBMvXsPjDGyhZ+Rnr57zKuln/JlxXybaVn5M54ASScwbjiU1A98Thz+hPfP4x9OvTj+zsbDLS0/D5fMTFxjYpo5Ng62XKYnsJzBVCgKZHensdmm4oYjpqk26WmACQ6fDzNAZFCTmmKUpGzz6iKTQH58q3U/P5mzwjh6YuN86aXil5u1m+P1nue9phq/ylY3BQEQKbR/RjtKPZniOnnb8T7bhSCP5wEeJbHPXtHJjMKJ1lpMwEnhatFyxXm8gBSLFrEHTTodH/KNrO7xymDCdSsFa9p0d8/56jHoY5tNnj5fMDokHZC2nXyffTpW29Ee1u19cCmR0dFVEH0XA6jX60N9HoL9ycWSTd8fs6h/3duVsxJsKkZON4kYunadygcJzj2WFHf7nNoS2GHfbXsTJje0F+Gy1yWETT88RKpF0aHHLqlN/5Mvv5reP9hgwappRzusPUF4pY7PI4npPjyG/Yce3DMnjFRjERhByzzS4j18zMTFJTUsjPyyU/L4+sHpmkp6XSKz8/wt3J+tz3mPspPOI2EjIHkDf81ySkFeJPKyTGn9ZlpG9tw/Vghuuoq97Mmm8fp2zddJZPvpftRV9RsXkR62dPIMaXjOGxuk9dTQWZmZnk5eSQkZ5Oj4wMMjMz2H/gQNLSUklKTNRsIewjBJSN5dOXL43wjvz+sTTs4TT6iSZLg+VJ58yVxadUIZRTpWP4pHNMk45RKPcfJEJuryA/LO+NxHDJky0wf6BxRXgKja4rY2U6lCajc57YEHNFE4gVgTxVbLPfy+hfI/dlAz0kZUqdDBD7bHPbPgaJPdDGY5LXq0UjucMhnF4hylSZRsbINNRGrtjvMh3vO0g691TJ76cO+7V9AluSlCuA5amgOQalTHnvwVK+m6QNIzd895KpfKJopXY7FNL0AMe/itYZFGLNkXruJaaYKtGQL5A2OEKmqRVSn/YUOlfq7haH/dJw2CmHRkylY+V9aVInCY4FMCfysXx/DxD7qK0tvhNhLjgIy53Qxh+EyA4QWf2f1Pdkh2Zvy/Yghyb/tSzoJQkZHSfljGyvG0Ubvkfa6F4pwwFC6PbROIXyf28pS6GYEWLknT2ljlYLaU5zrDfY7RUr5c6V7wulfe6XdvfLd7k0RsO7KYKQ7QGowGGbN7qIy+p65efX5+TkkN2jBykpKcTHx5OelkZebl6Uo7o0UGEC+cPJ2v8UvHFJ6J7dt/FOQ0fTPBhGDOFQDSVFUyhd+zlLP7mFhmBJE9tsQ6iBQCBAZmYGgZQASYmJpCQlk5GeRk52NsnJSXV2hV4liydrRPCqRct7Uyp5rQjR0yJk9u6WK8Q+aLs67cByB/mndJ6LRXhTZep4sPxdJNrLXCyXosfl2jtp3LBg4z4RfvudZ8rofYP8/aCQoEdI9gwh7BJ5dr0QzWTpfLEi8L+RAWKjCNNdItxb5blviVDZ7k3RcIdMCe28ZctzbKyVFVtDFicCWK4u2aLhfOIQ7IfElGLI5xulI9bL5z8Kma+Wznmj1M09kv+N0j7nCtGNk/cUiUkiKAS+MoqWfKaYAIrE9rdR6vQ3sgBily8Ly1dzkhDnBCH3d0VbGyqd9XSRo1SZmQwQebBtqYcIgeo0xgA4QAagIiGGa0UubLttQIiyh3z/aZT2OEvuWyNysE3q4XOxQc9xtNswR7lOlPw0SFvcJnX9R7kmVZ4zQOr0Hho3a9wt9ZIpz/VKHp4SGS0S0j1X6itNnn+CkO5kkS9DNP4iKet7Dvl7UfLSQ9YeThPzQok8+265b7S0zzEie16pMyVt/7w8J0Pq+hwh3c/ENu2cFZwrykiRyNpsuuagxpqEhISaQEoK9Q31xPviMQyd9LQ0fPHxGIaHqqoqEpzBuJXJnoCGjuGJQ4XrCQardtmtVbq9FA1IS0ujob6BhIQEgsEgSYlJeDxeKiuryjWlfkonQLtw4WJvhqZpHHHY6Bn9+vUbWVVZRV1dLWHTpGd+T+LjfdTUBPn9zTfTp18/zFAtP7z+K3ofcSuBgtGtPrt42Sd4YpNILdzVA2/bqqks++TmJlGxwuE60guPIznnIFZPH99ijNlwqJa8YZfR6+DLqdi8kEDBaN55801mz55NQ309m7duwePxsGXLVlKSk0lPT+O/b799q+42uQsXLroTJdu3F/XM70laWhrx8X7ycnOJj/cRGxOLPz6epUuWdGNuOq5gbt++naysLBKTkoiNiSE9NY2MjHT8fj85ObnsKCtb7RKsCxcuuhXr1m+Ym5KSQmpqKunpaeTm5pGUlEy8309ycjJz5szpNiNAOFSHGWrokAdwSck2Evx+4uLiSExMIiUlheysLAKBAIauh0INoWXumVwuXLjoNui6TnV19dyK8nLS09LQNI1AIEB5eTmFhYXU19fz2Wef7dUarKZpVFXXsnnzFnJycsjMzETXNWpqguTm5IKmMeP7GasBV4N14cJFt2P+D3N/2BHv95ObmwuAzxdHIJBCVlYW3hgvSxYvQffsnfpfTFwsX335BQkJCeTk5lpeEOkZ6LpGvN9Pfn4+s+bMnQc0uATrwoWL7sa2uQsWfpGbm0tMjJea6mry8vKpra0jNT2dgf0HMOHll+nKQ689sQnohofWwzu3DkM3+GLKFEYdOopASoC6ujqSkpPJyc4hFAqxcXMxw/rG/e/ZPx6CS7AuXLjo1im5psHatWvfXrp0KSkpAXJzc9F1nY0bN5KelsbJp57KgoULWLe2iBhv17jfappOp0MtKIUR6+erad9TVl7G8OEj8Hi96LpOeVkZySkp5OblMWvG9O3V1bXvL/ox5BKsCxcuuhdyCsBnkz74YGtqaipp6emYpklBQQGbNm1k/wMPZMTw4Txw33344jx7Wb51nnvpbc477zx6ZGezdk0RGRkZZGRmggaaEUvJ5uUf//7M5O0nH+xxCdaFCxd7gq0onTZ9+oSioiLqGxrI7JFJIDWVbcXFmKbJnWPvYlXRj7z/1QZ8Pu9ekeUEfxxvvfU+PQsHcPyJJ7CteCuxcT7ifD4CKSkkJSXx4aT3VH1d+TNzVuvMWqlcgnXhwkX3w7CiTT350ssvl+fkZKPrBrGxsfQfOJAN69YR54vj3vvuY8LkYtYXN+zx/MbHaXw3czETX32ZP97xRwBKtm2joKCA9PR0KiorUXiYPfOrKcP6Js8orVJUBV2CdeHCxR6AUgpNY9206dP/MfP7mcTEeOmRnU2PHllkZVunOx151JFccskV3HLHg9TV1u6xvPpiTbZW+Bj/8jdcf/0NZOfkYpom+/XuQ2ZmBpqm0X9Af16d8FL4hwXLb//PFxt4ffJaXp+y1iVYFy5c7CErgWWLfezR8eM3ZWZmEqqvJ5CaSpyvMc7PrbffxsABA7j017/eM5prbJgtOzw89k4tV193O8ccezRg+fP6ExJIy8gkKSWFRQsW8tobr78IzF23YRsbNpWwYVOJS7AuXLjoTlJtmgxDK127du1td95xJ70KC6Pe89jjj5Ofn8fZZ5xBeVlZd+nYJMSFWLYxhgf/W8Mll93Iry46P+qVycnJ3H3PPRvDYXOsYWjouiO5Te7ChYvuMw3smoDX3njzzQn/eOqpZu977PH/Y9jQoVxw/nnM/v773ZpHr8ckwad4e4aHJz6o5Y67H+GKKy9r9vrrrrmaBYsWXa3rWnFk7CyXYF24cLFHoesawPV33n3XomlTv2z2urHjxnH1767mrrvv4rGHH+7yfBi6SYIvxJbyGMZOaGDuxkxefuV1Tj31xGbvGf/II7zy6sTxwIdKKSKTS7AuXLjoRg1WRU2GrlWUlZWfcelvf7t58cKFzd5/+llnMeHVV9lWXMy5Z53F66++imlau7O83vb7zOoaxMUaJMQqSioN/vahwV/eDXHsqZfzwUcfMGBg/2bvff3VVxk77p73gTsNQ0fTtF2TGw/WhQsX3QXD0FsgO41Q2BzZv1+/j16bODFt2IgRLT5r3pw5TJz4Khs2bmTkyNGMHOjnwEEHkZg3cpdrqzbPY+H7V2JoCsMAXVOYZgiSRrK2uhdvv/su26r9/OKo47nqqivokZXZ4rsnvPQSv7vmmqnB2tqTPYZe0xyLugTrwoWLvYJgbZimOiQ/P+/9Z558KuuU009v9fqi1av48vMvmTvneyqrqigs7EPvPn3Iy88nNTUVf3w8DZVrWT75LmrqTMqDsWytiGVNsUllfSz5BQM47PCjOPm0k/H7Ylt93/hHH2HsPfd8VF/f8CtD1ypautYlWBcuXOxVBGvoOg2hcP+4uLg3xt5xx5C7xo1r8/PX/fgjixctYv26dWzetAlN1wgGawk11OP1gNcbizcugZ4Fvdlvv94cNPggkhJ9bXp2+Y4yrr/+Wl597fUXgGt1XatrLbqBS7AuXLjYqwhW0zSUUpimSgaeOnbMmIvHjx/P4KFD91i+P3z/Pe4cOza4aPGSO4G/GYZubZZwCdaFCxf7IsGChqlMUFyclpb66JWX/TbnT3ffRWJScrfld9Xy5dxzz9385623vzFN80Zd13+w8ohLsC5cuNi3CdaGaZo9gDsHDhhwxdVXXeW//Mor8TtPnu1i/LhmDU/89f947T//XVtcXPwQ8IKu6+HGPLoE68KFi58IwTqIti9wQ/9+/S48/dRT0y+88FcMGT6sS/IWCoWYNnUqr06YwCeffbZ8y9atzwIv6rpesWseXYJ14cLFT4xgHUSbCZyalJh4Yb++fYcdPGJEYNSoURxw4IEUFBaSlp7e6ns2bdzI6lWrWLhgAdOnT2feggUbVqxc+WU4HH4N+FLX9brm8+gSrAsXLn6iBOsgWoBMYDhweLzfPzQtNdArIz0jJS0Q8AcCKd6kpGQ0TSMUClFeUc727aXB0h2lVSXbS0u3lWxbEWoIzQamA4uAKl1vSx5dgnXhwsVPnGABzMagBoXAQKAP0MMb4w0kJSbG+XzxyibjYDBIeXl5pWmapcBmYDmwDChuC7G2l2D/fwCugYsyKAGyuwAAAABJRU5ErkJggg==;" parent="1" vertex="1">
          <mxGeometry x="790" y="-1640" width="230" height="76.22" as="geometry" />
        </mxCell>
        <mxCell id="KMlCDgL7FCjGD3PARy7O-5" value="Search" style="strokeWidth=1;shadow=0;dashed=0;align=center;html=1;shape=mxgraph.mockup.forms.searchBox;strokeColor=#999999;mainText=;strokeColor2=#008cff;fontColor=#666666;fontSize=17;align=left;spacingLeft=3;whiteSpace=wrap;" parent="1" vertex="1">
          <mxGeometry x="70" y="-1616.8899999999999" width="170" height="30" as="geometry" />
        </mxCell>
        <mxCell id="Ir1i-SZPwVLRDwjSAr28-2" value="" style="rounded=0;whiteSpace=wrap;html=1;" vertex="1" parent="1">
          <mxGeometry x="210" y="-1510" width="540" height="60" as="geometry" />
        </mxCell>
        <mxCell id="Ir1i-SZPwVLRDwjSAr28-3" value="Button" style="labelPosition=center;verticalLabelPosition=middle;align=center;html=1;shape=mxgraph.basic.shaded_button;dx=10;fillColor=#E6E6E6;strokeColor=none;whiteSpace=wrap;" vertex="1" parent="1">
          <mxGeometry x="770" y="-1510" width="100" height="60" as="geometry" />
        </mxCell>
        <mxCell id="Ir1i-SZPwVLRDwjSAr28-5" value="&lt;font style=&quot;font-size: 30px;&quot;&gt;اضف مهمتك&lt;/font&gt;" style="text;html=1;align=right;verticalAlign=middle;whiteSpace=wrap;rounded=0;fontColor=#CCCCCC;labelBackgroundColor=none;labelBorderColor=none;textShadow=0;" vertex="1" parent="1">
          <mxGeometry x="300" y="-1495" width="430" height="30" as="geometry" />
        </mxCell>
        <mxCell id="Ir1i-SZPwVLRDwjSAr28-6" value="" style="rounded=0;whiteSpace=wrap;html=1;fillColor=#f5f5f5;fontColor=#333333;strokeColor=#666666;" vertex="1" parent="1">
          <mxGeometry x="105" y="-1410" width="875" height="1320" as="geometry" />
        </mxCell>
      </root>
    </mxGraphModel>
  </diagram>
  <diagram id="GdRF8Nkr2Y6qLh8bWEZb" name="هيكل">
    <mxGraphModel dx="1163" dy="705" grid="1" gridSize="10" guides="1" tooltips="1" connect="1" arrows="1" fold="1" page="1" pageScale="1" pageWidth="1100" pageHeight="850" math="0" shadow="0">
      <root>
        <mxCell id="0" />
        <mxCell id="1" parent="0" />
        <mxCell id="-_x0rp4JcepJ7ZZ39uuZ-3" value="" style="edgeStyle=orthogonalEdgeStyle;rounded=0;orthogonalLoop=1;jettySize=auto;html=1;" edge="1" parent="1" source="-_x0rp4JcepJ7ZZ39uuZ-1" target="-_x0rp4JcepJ7ZZ39uuZ-2">
          <mxGeometry relative="1" as="geometry" />
        </mxCell>
        <mxCell id="-_x0rp4JcepJ7ZZ39uuZ-1" value="الصفحة الرئيسية" style="rounded=0;whiteSpace=wrap;html=1;" vertex="1" parent="1">
          <mxGeometry x="510" y="100" width="120" height="60" as="geometry" />
        </mxCell>
        <mxCell id="-_x0rp4JcepJ7ZZ39uuZ-2" value="قائمة المهام" style="rounded=0;whiteSpace=wrap;html=1;" vertex="1" parent="1">
          <mxGeometry x="680" y="250" width="50" height="60" as="geometry" />
        </mxCell>
        <mxCell id="-_x0rp4JcepJ7ZZ39uuZ-4" value="" style="endArrow=classic;startArrow=classic;html=1;rounded=0;entryX=0.5;entryY=1;entryDx=0;entryDy=0;" edge="1" parent="1">
          <mxGeometry width="50" height="50" relative="1" as="geometry">
            <mxPoint x="630" y="260" as="sourcePoint" />
            <mxPoint x="630" y="160" as="targetPoint" />
          </mxGeometry>
        </mxCell>
        <mxCell id="-_x0rp4JcepJ7ZZ39uuZ-5" value="قائمة المهام" style="rounded=0;whiteSpace=wrap;html=1;" vertex="1" parent="1">
          <mxGeometry x="600" y="250" width="60" height="60" as="geometry" />
        </mxCell>
      </root>
    </mxGraphModel>
  </diagram>
</mxfile>
